<?xml version="1.0" encoding="utf-8"?>
<!-- Generator: Adobe Illustrator 26.5.0, SVG Export Plug-In . SVG Version: 6.00 Build 0)  -->
<svg version="1.1" id="Layer_1" xmlns="http://www.w3.org/2000/svg" xmlns:xlink="http://www.w3.org/1999/xlink" x="0px" y="0px"
	 viewBox="0 0 982.9 158.1" style="enable-background:new 0 0 982.9 158.1;" xml:space="preserve">
<style type="text/css">
	.st0{fill:#FFFFFF;}
</style>
<g>
	<path class="st0" d="M0,50.8h35.5c22.5,0,29.4,6.8,29.4,17.1c0,5.7-2.4,11.2-10.6,13.5v0.2c9.2,1.9,10.4,8,10.4,13.8v11.9H43.2
		V94.8c0-4.8-2-6.9-7.4-6.9H21.5v19.4H0V50.8z M35.7,77.7c6.4,0,8.8-2.4,8.8-6c0-3.3-2.3-5.8-9.8-5.8H21.5v11.8H35.7z"/>
	<path class="st0" d="M122.8,97.2h-27l-4.5,10.1H69.6l28.1-56.5h26.9l28.1,56.5h-25.3L122.8,97.2z M118.2,86.9l-8.8-19.6h-0.3
		l-8.8,19.6H118.2z"/>
	<path class="st0" d="M141.7,50.8h25.3l17.5,38.5h0.1l17.2-38.5h21.7l-27.5,56.5h-27L141.7,50.8z"/>
	<path class="st0" d="M229,50.8h53.8v15.1h-32.4v8.3h23.8v9.4h-23.8v8.6h33.2v15.1H229V50.8z"/>
	<path class="st0" d="M290.2,50.8h29.7l22.3,29h0.1l-0.2-29h18.8v56.5H336l-27.2-35.4h-0.2l0.3,35.4h-18.8V50.8z"/>
	<path class="st0" d="M393.5,50.8h29.9c27.1,0,36.1,12.3,36.1,28.2c0,18.1-9.1,28.2-33.5,28.2h-32.4V50.8z M425.2,92.2
		c9.3,0,12.9-4.6,12.9-13.1c0-7.3-3.7-13.1-13.6-13.1H415v26.3H425.2z"/>
	<path class="st0" d="M465.9,50.8h53.8v15.1h-32.4v8.3h23.8v9.4h-23.8v8.6h33.2v15.1h-54.7V50.8z"/>
	<path class="st0" d="M526.2,88.3H545c0,4,2.7,7.3,13.6,7.3c11.4,0,13.2-2.6,13.2-5.5c0-1.9-1.1-3.1-3.8-3.7
		c-2.9-0.6-10.2-0.9-16.1-1.4c-6.6-0.4-14.8-1.5-19.2-3.8c-4.4-2.2-7-6.3-7-11.9c0-10.8,10.3-19.6,33.4-19.6
		c27.4,0,32.1,9.3,32.1,19.5h-18.3c0-4.2-4-6.8-13.1-6.8c-8.9,0-12.4,2.1-12.4,5.2c0,1.6,0.9,2.7,2.9,3.3c2.6,0.9,9.7,1.1,16,1.6
		c8.2,0.6,14.5,1.3,19,3.2c5.4,2.2,8.5,6.6,8.5,12.4c0,9.3-4.7,20-34.6,20C529.2,108.3,526.2,96,526.2,88.3z"/>
	<path class="st0" d="M601,50.8h21.5v56.5H601V50.8z"/>
	<path class="st0" d="M629.2,79.8c0-16.5,11.8-30,36.8-30c25.5,0,32.9,10.7,32.9,21.5c0,0.5,0,1.4-0.1,2.1H681V73
		c0-3.9-3.6-8.1-13.8-8.1c-10.3,0-16,6.2-16,15c0,8.5,4.6,15,15.8,15c9.6,0,13-4.8,13-7.8v-0.2H665v-8.8h34.9v29.1h-16.4
		c0.1-2.2,0.2-6.5,0.2-10h-0.2c-2,6.4-8.2,11.1-21.1,11.1C638.6,108.3,629.2,94.8,629.2,79.8z"/>
	<path class="st0" d="M706.9,50.8h29.7l22.3,29h0.1l-0.2-29h18.8v56.5h-24.9l-27.2-35.4h-0.2l0.3,35.4h-18.8V50.8z"/>
	<path class="st0" d="M808.8,79.1c0-16.8,12-29.4,36.3-29.4c25.8,0,33.7,13.6,33.7,23.5c0,0.3,0,1.2-0.1,1.7h-18.2v-0.3
		c0-4.8-4.4-9.8-13.9-9.8c-9.9,0-15.2,6-15.2,14.3c0,7.9,4.6,14.1,15.3,14.1c9.1,0,14-4,14-9.6v-0.4h18.2c0.1,0.6,0.1,1.3,0.1,1.5
		c0,11.4-8.6,23.7-33.7,23.7C817.6,108.3,808.8,93.7,808.8,79.1z"/>
	<path class="st0" d="M883.7,78.8c0-15.9,11.7-29,37.9-29c26.1,0,37.8,13.1,37.8,29c0,16.3-10.8,29.5-37.8,29.5
		C895.3,108.3,883.7,96,883.7,78.8z M936.7,78.9c0-8-4.9-14-15.2-14c-10.3,0-15.3,6-15.3,14c0,8.8,4.9,14.3,15.3,14.3
		C932.1,93.2,936.7,87.4,936.7,78.9z"/>
	<path class="st0" d="M963.9,91.6h18v15.7h-18V91.6z"/>
</g>
</svg>
