<?xml version="1.0" encoding="utf-8"?>
<!-- Generator: Adobe Illustrator 26.5.0, SVG Export Plug-In . SVG Version: 6.00 Build 0)  -->
<svg version="1.1" id="Layer_1" xmlns="http://www.w3.org/2000/svg" xmlns:xlink="http://www.w3.org/1999/xlink" x="0px" y="0px"
	 viewBox="0 0 572 92" style="enable-background:new 0 0 572 92;" xml:space="preserve">
<style type="text/css">
	.st0{fill:#FFFFFF;}
</style>
<g>
	<path class="st0" d="M1,29.6h20.6c13.1,0,17,3.9,17,9.9c0,3.3-1.4,6.5-6.2,7.8v0.1c5.3,1.1,6,4.6,6,8v6.9H26.1v-7.3
		c0-2.8-1.1-4-4.3-4h-8.3v11.3H1V29.6z M21.8,45.2c3.7,0,5.1-1.4,5.1-3.5c0-1.9-1.3-3.3-5.7-3.3h-7.7v6.8H21.8z"/>
	<path class="st0" d="M72.3,56.5H56.6L54,62.4H41.4l16.3-32.8h15.6l16.3,32.8H74.9L72.3,56.5z M69.6,50.6l-5.1-11.4h-0.1l-5.1,11.4
		H69.6z"/>
	<path class="st0" d="M83.3,29.6H98l10.2,22.3h0l10-22.3h12.6l-15.9,32.8H99.2L83.3,29.6z"/>
	<path class="st0" d="M133.9,29.6h31.2v8.8h-18.8v4.8h13.8v5.4h-13.8v5h19.3v8.8h-31.7V29.6z"/>
	<path class="st0" d="M169.5,29.6h17.2l13,16.8h0l-0.1-16.8h10.9v32.8h-14.5l-15.8-20.5h-0.1l0.2,20.5h-10.9V29.6z"/>
	<path class="st0" d="M229.4,29.6h17.3c15.7,0,20.9,7.1,20.9,16.4c0,10.5-5.3,16.4-19.4,16.4h-18.8V29.6z M247.8,53.6
		c5.4,0,7.5-2.7,7.5-7.6c0-4.2-2.1-7.6-7.9-7.6h-5.5v15.2H247.8z"/>
	<path class="st0" d="M271.4,29.6h31.2v8.8h-18.8v4.8h13.8v5.4h-13.8v5h19.3v8.8h-31.7V29.6z"/>
	<path class="st0" d="M306.5,51.4h10.9c0,2.3,1.6,4.2,7.9,4.2c6.6,0,7.7-1.5,7.7-3.2c0-1.1-0.6-1.8-2.2-2.1
		c-1.7-0.3-5.9-0.5-9.3-0.8c-3.8-0.2-8.6-0.8-11.2-2.2c-2.5-1.3-4-3.6-4-6.9c0-6.3,6-11.4,19.4-11.4c15.9,0,18.6,5.4,18.6,11.3
		h-10.6c0-2.4-2.3-3.9-7.6-3.9c-5.2,0-7.2,1.2-7.2,3c0,0.9,0.5,1.6,1.7,1.9c1.5,0.5,5.6,0.6,9.3,0.9c4.7,0.3,8.4,0.7,11,1.8
		c3.1,1.3,4.9,3.8,4.9,7.2c0,5.4-2.7,11.6-20.1,11.6C308.2,63,306.5,55.8,306.5,51.4z"/>
	<path class="st0" d="M349.9,29.6h12.5v32.8h-12.5V29.6z"/>
	<path class="st0" d="M366.3,46.4c0-9.6,6.9-17.4,21.4-17.4c14.8,0,19.1,6.2,19.1,12.5c0,0.3,0,0.8-0.1,1.2h-10.4v-0.2
		c0-2.2-2.1-4.7-8-4.7c-6,0-9.3,3.6-9.3,8.7c0,4.9,2.7,8.7,9.2,8.7c5.6,0,7.6-2.8,7.6-4.5v-0.1H387v-5.1h20.2v16.9h-9.5
		c0.1-1.3,0.1-3.8,0.1-5.8h-0.1c-1.1,3.7-4.8,6.4-12.3,6.4C371.7,63,366.3,55.1,366.3,46.4z"/>
	<path class="st0" d="M411.4,29.6h17.2l13,16.8h0l-0.1-16.8h10.9v32.8H438l-15.8-20.5h-0.1l0.2,20.5h-10.9V29.6z"/>
	<path class="st0" d="M470.5,46c0-9.8,7-17,21.1-17c14.9,0,19.5,7.9,19.5,13.7c0,0.2,0,0.7,0,1h-10.6v-0.2c0-2.8-2.5-5.7-8.1-5.7
		c-5.7,0-8.8,3.5-8.8,8.3c0,4.6,2.7,8.2,8.9,8.2c5.3,0,8.1-2.3,8.1-5.6v-0.2h10.6c0,0.3,0,0.7,0,0.8c0,6.6-5,13.8-19.6,13.8
		C475.6,63,470.5,54.5,470.5,46z"/>
	<path class="st0" d="M514,45.9c0-9.2,6.8-16.8,22-16.8c15.1,0,21.9,7.6,21.9,16.8c0,9.5-6.3,17.1-21.9,17.1
		C520.7,63,514,55.8,514,45.9z M544.8,45.9c0-4.6-2.8-8.1-8.8-8.1s-8.9,3.5-8.9,8.1c0,5.1,2.8,8.3,8.9,8.3
		C542.1,54.2,544.8,50.8,544.8,45.9z"/>
	<path class="st0" d="M560.5,53.3H571v9.1h-10.5V53.3z"/>
</g>
</svg>
